/* XPM */
static char *_457beeabd424fffe35108eccc5c5404Npma4EVDj5kp0vjb[] = {
/* columns rows colors chars-per-pixel */
"32 32 249 2 ",
"   c #00330D",
".  c #0E2C10",
"X  c #122715",
"o  c #0E3C1E",
"O  c #053317",
"+  c #1C351B",
"@  c #143C1D",
"#  c #1B3C1F",
"$  c #1B320C",
"%  c #28241A",
"&  c #30281D",
"*  c #26361B",
"=  c #33371E",
"-  c #1E3E26",
";  c #053D22",
":  c #262C21",
">  c #352D23",
",  c #382926",
"<  c #2A3323",
"1  c #243B24",
"2  c #2D3A27",
"3  c #233F2C",
"4  c #2B382B",
"5  c #3C342C",
"6  c #36392B",
"7  c #3B392D",
"8  c #383526",
"9  c #2A3D31",
"0  c #3C3B33",
"q  c #353531",
"w  c #42352A",
"e  c #41392F",
"r  c #483929",
"t  c #433732",
"y  c #493631",
"u  c #443D34",
"i  c #4B3C34",
"p  c #453D3A",
"a  c #493E3A",
"s  c #523C39",
"d  c #44252A",
"f  c #05441C",
"g  c #17451D",
"h  c #2A4618",
"j  c #2E501E",
"k  c #325C1C",
"l  c #30561D",
"z  c #2F4917",
"x  c #0B4C25",
"c  c #094424",
"v  c #164024",
"b  c #1E4424",
"n  c #134921",
"m  c #154429",
"M  c #1C442B",
"N  c #144D2C",
"B  c #194C2B",
"V  c #0F512B",
"C  c #14512C",
"Z  c #1A512D",
"A  c #0E4D30",
"S  c #194A32",
"D  c #195E39",
"F  c #1C5733",
"G  c #085A36",
"H  c #24462D",
"J  c #2D4C2D",
"K  c #274825",
"L  c #364627",
"P  c #335425",
"I  c #3C542B",
"U  c #3F5B27",
"Y  c #244E34",
"T  c #2C4937",
"R  c #3A4332",
"E  c #344B35",
"W  c #324D3A",
"Q  c #3D4A38",
"!  c #255837",
"~  c #35553D",
"^  c #345C3B",
"/  c #3A5237",
"(  c #295228",
")  c #146B3E",
"_  c #146336",
"`  c #286436",
"'  c #44412D",
"]  c #48412F",
"[  c #455D2E",
"{  c #424334",
"}  c #4B4135",
"|  c #444C33",
" . c #43433A",
".. c #4C443B",
"X. c #4D4B3E",
"o. c #484C39",
"O. c #524035",
"+. c #52443C",
"@. c #524B3D",
"#. c #5D493C",
"$. c #445031",
"%. c #44523B",
"&. c #445A3B",
"*. c #485A35",
"=. c #55533B",
"-. c #535D3C",
";. c #66453C",
":. c #486539",
">. c #58633C",
",. c #4A622E",
"<. c #3E4944",
"1. c #2B5A41",
"2. c #335C44",
"3. c #3B5D45",
"4. c #365747",
"5. c #2D6344",
"6. c #266943",
"7. c #336945",
"8. c #3A6848",
"9. c #3C6F50",
"0. c #317549",
"q. c #4E4C44",
"w. c #464742",
"e. c #554C43",
"r. c #5A4D44",
"t. c #574D4A",
"y. c #584846",
"u. c #425442",
"i. c #4A5445",
"p. c #4D5B43",
"a. c #445C4B",
"s. c #4B5A4A",
"d. c #485849",
"f. c #5A5245",
"g. c #545B43",
"h. c #535449",
"j. c #5B534B",
"k. c #525C4C",
"l. c #5C5A4E",
"z. c #525145",
"x. c #4E5452",
"c. c #5B5351",
"v. c #5C5A51",
"b. c #545954",
"n. c #5A4E52",
"m. c #63544C",
"M. c #645A4D",
"N. c #675747",
"B. c #635C54",
"V. c #695D54",
"C. c #6B5C59",
"Z. c #645957",
"A. c #745B56",
"S. c #72554D",
"D. c #4A6142",
"F. c #48694A",
"G. c #57664A",
"H. c #44794A",
"J. c #53714D",
"K. c #546453",
"L. c #5C6353",
"P. c #536D55",
"I. c #5C6959",
"U. c #417551",
"Y. c #5B735D",
"T. c #666B4E",
"R. c #62644D",
"E. c #646353",
"W. c #65645B",
"Q. c #6C645B",
"!. c #6B6A5D",
"~. c #696856",
"^. c #746554",
"/. c #72685E",
"(. c #71635D",
"). c #687456",
"_. c #77725D",
"`. c #65714B",
"'. c #5D6F64",
"]. c #6D6562",
"[. c #656E62",
"{. c #6D6C63",
"}. c #696665",
"|. c #7C6764",
" X c #746B63",
".X c #726C69",
"XX c #786764",
"oX c #6C7565",
"OX c #677B66",
"+X c #677768",
"@X c #747364",
"#X c #7C7367",
"$X c #7B7A64",
"%X c #75736A",
"&X c #7B746B",
"*X c #737C6C",
"=X c #7C796C",
"-X c #777964",
";X c #7F6F72",
":X c #6C7671",
">X c #7D7B72",
",X c #797973",
"<X c #84736B",
"1X c #81796D",
"2X c #8D7D6E",
"3X c #876E71",
"4X c #827774",
"5X c #837D74",
"6X c #8B7D76",
"7X c #857C79",
"8X c #8D7D78",
"9X c #8E7571",
"0X c #8E7472",
"qX c #7B806F",
"wX c #7B896F",
"eX c #7B8573",
"rX c #7D8479",
"tX c #7E8B7C",
"yX c #758676",
"uX c #68826C",
"iX c #838376",
"pX c #8B8177",
"aX c #858279",
"sX c #8C847B",
"dX c #838A7D",
"fX c #8B897C",
"gX c #92847C",
"hX c #938B7C",
"jX c #99867D",
"kX c #8C8C77",
"lX c #7FA485",
"zX c #8A8882",
"xX c #9C8582",
"cX c #938C82",
"vX c #9A8D86",
"bX c #938A85",
"nX c #899386",
"mX c #969183",
"MX c #989086",
"NX c #9D948B",
"BX c #96988B",
"VX c #9E9991",
"CX c #A58B86",
"ZX c #A1938B",
"AX c #A29A8C",
"SX c #A39C91",
"DX c #A79792",
"FX c #B0A39D",
"GX c #ADA69C",
/* pixels */
"V.z.#.6X X|.L. Xm.j.r.<X<X|.~.E.^.N.i V.1X#XM.^.R.M.} r $X/._.N.",
"jXpXZ Y.5XiXCXtXjX<X..5X6XxX<XAX5X=X..aXsXsXgX1X%X/.i (.sXpXgXCX",
"8XK.m c P.pX/.pXeXOX3.~ yX*X*X*X>XnXw.>XzXfX%X%X1.4.3 3 W uX+XyX",
"E.s.8 M 9.a.P.A.B.L.1 X 2 q.j.j.W.e.p c. .E.L.p.W X q : 4 x.p ].",
"I.A.l.u E N u.J 3 M Z 7.Y H T M M.<X<Xm.@.{ / J.E 2 l.V.V.Q.j.m.",
"NXpXBX{ < a.^ C u 0 k.i.R : %.1 hXhX2XjXhX-XwX*   ^ D.dXqXdXfXe.",
"3XdX].T b 2 ! @ x.:X+XtXi.Y.8.C K uXiXcXgX X*Xi.b 1 R 5X=X.X6XS.",
"k.Z.I.~ 6.) + } t.n.p t...R b n F 8.P.}.Z.;X].p 0.c 2.3 W a.'.<.",
"@.M.#.' ).%.| N.m.Q.q.X.} j.Q.l.* D.&.o.s y <XE.@. .9 O ` H.-.S.",
"fXpX#XQ.6 eXcXZX6XMX>X5X..vXgX5X0.g ^ *X+.S.DX&XAXeX4.m g :.R.pX",
"{..X4X4X% zXzX7X6XsX5XpX5 cX5X1XP K K ~ / oXeXnXE.W 1.M %.+.Q.*X",
"q.t.Z.t.5 Z.j.c.B.B.Q.Q.u B.B.V.:.F.! B m u.j.A./ H - u.8 r.t.b.",
"M.E.j.@.j.j.{ < 4 z.r.y...7 u y N.#.{ Q 3.m ! 5.1.T k.u 0 q q., ",
"sXmXfXmXgXpXI.+ W rX&X&X{.W.v.r.lXBXpX9X6Xd.^ g S P.1XvX}.:XZ.t ",
"5X>XiX=X X=XK.v Y '.%X4XW.[.j.y.zX<XxX6Xs.F.U.  W K.=X#X&X}.}.8 ",
"(.W.rXW.&X{.a.5.c H B.].h.s.p s XX.X[.2.C Y X r b.I.D.G.C.XXV.* ",
"a +.+.m.f.@.{ * x N S o g ( b J S d t ^ @ = w =.+.i , } r.+.m.+.",
"1XB. XpXNX5XeXg.9.o 2.H J J.J a.; G 1.~ x 8._.1XsXQ.u NXMXMXsXSX",
"gXj.r.1X#X&XqXE.J.+ 1 Q | D.p.Q ) B m D Z E g.@XpX@X7 iX=XcX=X5X",
"&X..j.i B.7 !.h.T.i. .v.E.E.@Xh.B 8 * B W j.[.oX&Xl.0 !.&XE.Q.&X",
"u r.X...{ 8 7 0 8 e y.t i =.e 0 ] Z - y o.4 u ..e ....+.j.5 +.+.",
" XcXAX&XVX%X>X{.^.ZXZXgXsXpXiX.XU._ V [.BX*X&X3Xr.DXFXvXgXbXvX<X",
"B.6X5X5X>X5X%XQ.f.vX7XzX1X!.zXx.f B x ! pXgXdXC.>  X&XsXpX&X&X5X",
"e.Q.=X>X%X{..Xj.f.Q.;X,XW.oX*X<.% D 5.C.8X[.rX4X6 %X*X%X>X{.%X{.",
"+.y y +.r.@.i i ;.y 8 R o.X...7 , 4 @ b 2 O.s w } ..} & M.+.i w ",
"vX6XV.=XVXNXNXpXgX1X!.!.SXDXZXcXI.8.c 5.P.iX5XBXVXQ.j.f.GXcXMXSX",
"5XaXf.Q.fX5XfXaXbXaX{.j.ZXxX8XfX+XH o Y k.Q.<X X].>X%X7 7XaXzX%X",
" X=Xj.j..X!.!.%X{..XB.y.|.XX{.:X7.6.f F 3.+X%.K.]..Xc., %X,X%X{.",
"' ' 8 & i } & u a q.i +.r { 3 m E . K * & , i w > u 5 t ..> % e.",
"`.T.-XM.Q.!.o.T.sXhXiXhX_.OX2.A ` 7.^ P.&.G.L ).~.$X~.@X%X-X| L ",
"U ,.G.-.%.$.h I g.G.-.>.>.D.v O K + g.G.g.-.*.>.>.>.$.p.I I z [ ",
"k k P I *.[ P h P :.P h [ / # M n J %.| L [ $ z ,.U I I ( j l k "
};
