/* XPM */
static char *b1612c8c5bf04801ecfb0bfae2d922aaajjlh5VLYvynmfNF[] = {
/* columns rows colors chars-per-pixel */
"32 32 6 1 ",
"  c #100F17",
". c #1D1436",
"X c #3A2E60",
"o c #4D488A",
"O c #7198BC",
"+ c #C0D0DE",
/* pixels */
" XoooooooooX.XXXXXX XooooooooooX",
" OOooooooooo.ooooXX.oOOOOOoooooo",
" ++++OOooooo.OOOOoo.o++++OOOOooo",
" ooXXXXXXXXX.XXXXXX.XoooXXXXXXXX",
" ooXXXXXXXXX XXXXXX XooXXXXXXXXX",
" XXXXXXXXXXX XXXXXX XXXXXXXXXXXX",
"  .......... XXXXXX   .     ... ",
" XoOOOOOOooo.XXXXXX ++OO XoooooX",
" oO+++OoXXXX.XXXXXX.oooo.oOOOooo",
" ooooXXXXXXX XXXXXX.XXXX.oooXXXX",
".ooXXXXXXXXX XXXXXX XXXX.oooXXXX",
".oXXXXXXXXXX XXXXXX XXXX.XooXXXX",
".XXXXXXXXXXX   ...   ..  XooXXXX",
".XXXXXXXXXXX XOooooooooX XXXXXXX",
".XXXXXXXXXXX oOOOooooooo XXXXXXX",
".XXXXXXXXXXX ooO+++OOooo.XXXXXXX",
".XXXXXXXXXXX.oooXXXXXXXX.XXXXXXX",
".XXXXXXXXXXX.oooXXXXXXXX.XXXXXXX",
".............ooXXXXXXXXX.XXXXXXX",
".oOooooooooo.XXXXXXXXXXX.XXXXXXX",
".oOOOooooooo.XXXXXXXXXXX.XXXXXXX",
".o++++OOOooo.XXXXXXXXXXX.XXXXXXX",
" XXooXXXXXXX XXXXXXXXXXX XXXXXXX",
" XXXXXXXXXXX XXXXXXXXXXX XXXXXXX",
"..............  ..    ....   ...",
"OOOOOoooooooooX XOoooooooooX OOO",
"+++OooXXXXXXXXX oOOOOOoooooo oO+",
"oXXXXXXXXXXXXXX.oo++++OOOooo.ooo",
"XXXXXXXXXXXXXXX.oooXXXXXXXXX.XXX",
"XXXXXXXXXXXXXXX.oooXXXXXXXXX XXX",
"XXXXXXXXXXXXXXX XXXXXXXXXXXX XXX",
". ...     ...     .........  ...",
};
